<svg width="107" height="97" xmlns="http://www.w3.org/2000/svg" xmlns:svg="http://www.w3.org/2000/svg" clip-rule="evenodd">
 <g>
  <title>Layer 1</title>
  <g transform="matrix(1,0,0,1,-49.5899,-60.2068) " id="svg_1">
   <g transform="matrix(0.462821,0,0,0.438949,335.43,161.318) " id="svg_2">
    <g transform="matrix(1,0,0,1,-617.603,-230.348) " id="svg_3">
     <path d="m200.2325,141.43864l0.003,0.016l0,-0.016l-0.003,0z" fill-rule="nonzero" fill="#000000" id="svg_4"/>
    </g>
    <g transform="matrix(1,0,0,1,-617.603,-230.348) " id="svg_5">
     <path d="m95.6845,118.24264l0,0.015l0.002,-0.015l-0.002,0z" fill-rule="nonzero" fill="#000000" id="svg_6"/>
    </g>
    <g transform="matrix(1,0,0,1,-617.603,-230.348) " id="svg_7">
     <path d="m57.8615,157.67164l0,0.01l0.001,-0.01l-0.001,0z" fill-rule="nonzero" fill="#000000" id="svg_8"/>
    </g>
    <g transform="matrix(1,0,0,1,-617.603,-230.348) " id="svg_9">
     <path d="m77.5405,141.74264l0,-0.008l0,0.008z" fill-rule="nonzero" fill="#000000" id="svg_10"/>
    </g>
    <g transform="matrix(1,0,0,1,-617.603,-230.348) " id="svg_11">
     <path d="m176.5805,132.42564l0.002,0.008l0,-0.008l-0.002,0z" fill-rule="nonzero" fill="#000000" id="svg_12"/>
    </g>
    <g transform="matrix(1,0,0,1,-617.603,-230.348) " id="svg_13">
     <path d="m138.4085,55.43864c1.066,1.536 3.09,2.241 4.92,1.7c0.459,-0.135 0.892,-0.345 1.291,-0.62c1.996,-1.41 2.49,-4.184 1.098,-6.178c-0.825,-1.188 -2.209,-1.897 -3.707,-1.897c-0.913,0 -1.78,0.269 -2.508,0.776c-2.012,1.407 -2.504,4.198 -1.094,6.219" fill-rule="nonzero" fill="#000000" id="svg_14"/>
    </g>
    <g transform="matrix(1,0,0,1,-617.603,-230.348) " id="svg_15">
     <path d="m127.0175,44.30364c0.074,1.388 0.68,2.646 1.699,3.539c1.342,1.227 3.211,1.649 4.936,1.144c0.927,-0.277 1.756,-0.803 2.39,-1.52c0.93,-1.03 1.397,-2.353 1.323,-3.735c-0.077,-1.382 -0.684,-2.654 -1.715,-3.582c-0.904,-0.811 -2.119,-1.259 -3.418,-1.259c-1.522,0 -2.938,0.61 -3.885,1.675c-0.934,1.021 -1.402,2.345 -1.33,3.738" fill-rule="nonzero" fill="#000000" id="svg_16"/>
    </g>
    <g transform="matrix(1,0,0,1,-617.603,-230.348) " id="svg_17">
     <path d="m115.6355,41.74264c0.899,0.496 1.911,0.759 2.921,0.759c0.576,0 1.152,-0.083 1.711,-0.249c1.533,-0.451 2.797,-1.466 3.555,-2.859c0.787,-1.411 0.974,-3.035 0.533,-4.582c-0.444,-1.552 -1.463,-2.834 -2.871,-3.607c-0.83,-0.454 -1.795,-0.695 -2.791,-0.695c-2.259,0 -4.385,1.198 -5.418,3.052c-1.584,2.902 -0.529,6.575 2.36,8.181" fill-rule="nonzero" fill="#000000" id="svg_18"/>
    </g>
    <g transform="matrix(1,0,0,1,-617.603,-230.348) " id="svg_19">
     <path d="m99.0405,38.22464c1.227,0.34 2.598,0.333 3.863,-0.035c2.333,-0.692 4.127,-2.493 4.793,-4.82c0.511,-1.797 0.291,-3.695 -0.619,-5.343c-0.911,-1.64 -2.406,-2.83 -4.212,-3.351c-0.571,-0.161 -1.174,-0.244 -1.784,-0.244c-3.146,0 -6.058,2.142 -6.918,5.093c-1.034,3.703 1.151,7.611 4.877,8.7" fill-rule="nonzero" fill="#000000" id="svg_20"/>
    </g>
    <g transform="matrix(1,0,0,1,-617.603,-230.348) " id="svg_21">
     <path d="m78.9655,38.51364c0.944,0.052 1.859,-0.062 2.752,-0.324c3.333,-0.985 5.691,-3.972 5.864,-7.434c0.116,-2.203 -0.637,-4.317 -2.124,-5.954c-1.468,-1.62 -3.468,-2.566 -5.633,-2.666l-0.403,-0.011c-4.299,0 -7.991,3.499 -8.23,7.801c-0.216,4.511 3.272,8.367 7.774,8.588" fill-rule="nonzero" fill="#000000" id="svg_22"/>
    </g>
    <g transform="matrix(1,0,0,1,-617.603,-230.348) " id="svg_23">
     <path d="m44.9675,36.42464c0.815,4.586 4.791,7.914 9.453,7.915l0.001,0c0.557,0 1.119,-0.05 1.674,-0.147c0.351,-0.06 0.698,-0.142 1.035,-0.24c4.678,-1.382 7.574,-6.052 6.73,-10.864c-0.832,-4.573 -4.807,-7.898 -9.449,-7.898c-0.555,0 -1.116,0.049 -1.667,0.146c-5.201,0.974 -8.694,5.948 -7.777,11.088" fill-rule="nonzero" fill="#000000" id="svg_24"/>
    </g>
    <g transform="matrix(1,0,0,1,-617.603,-230.348) " id="svg_25">
     <path d="m140.0485,72.44864c0.924,-1.026 1.391,-2.354 1.314,-3.74c-0.076,-1.383 -0.685,-2.646 -1.715,-3.558c-0.915,-0.832 -2.134,-1.286 -3.441,-1.286c-1.508,0 -2.908,0.603 -3.836,1.651c-0.933,1.026 -1.404,2.349 -1.334,3.738c0.063,1.376 0.662,2.643 1.69,3.575c0.962,0.854 2.195,1.33 3.47,1.331c0.5,0 1,-0.073 1.486,-0.217c0.911,-0.267 1.727,-0.784 2.366,-1.494" fill-rule="nonzero" fill="#000000" id="svg_26"/>
    </g>
    <g transform="matrix(1,0,0,1,-617.603,-230.348) " id="svg_27">
     <path d="m128.3575,59.78264c-0.453,-1.55 -1.482,-2.839 -2.893,-3.619c-0.836,-0.457 -1.802,-0.701 -2.796,-0.701c-2.26,0 -4.334,1.18 -5.413,3.082c-1.568,2.918 -0.495,6.594 2.403,8.176c0.898,0.494 1.9,0.753 2.898,0.753c0.574,0 1.149,-0.083 1.707,-0.247c1.539,-0.456 2.799,-1.473 3.545,-2.868c0.795,-1.412 0.985,-3.028 0.549,-4.576" fill-rule="nonzero" fill="#000000" id="svg_28"/>
    </g>
    <g transform="matrix(1,0,0,1,-617.603,-230.348) " id="svg_29">
     <path d="m111.6975,58.32264c0.502,-1.793 0.278,-3.694 -0.633,-5.346c-0.915,-1.633 -2.41,-2.814 -4.204,-3.324c-0.582,-0.167 -1.186,-0.25 -1.799,-0.25c-3.148,0 -6.045,2.134 -6.885,5.076c-1.063,3.72 1.102,7.615 4.825,8.686c1.276,0.356 2.644,0.354 3.916,-0.021c2.314,-0.686 4.101,-2.488 4.78,-4.821" fill-rule="nonzero" fill="#000000" id="svg_30"/>
    </g>
    <g transform="matrix(1,0,0,1,-617.603,-230.348) " id="svg_31">
     <path d="m91.5775,55.71864c0.118,-2.193 -0.63,-4.3 -2.107,-5.929c-1.47,-1.622 -3.473,-2.572 -5.644,-2.675c-0.146,-0.008 -0.287,-0.012 -0.425,-0.012c-4.22,0 -7.974,3.558 -8.199,7.77c-0.231,4.508 3.254,8.369 7.77,8.605c0.159,0.009 0.315,0.013 0.468,0.013c0.774,0 1.542,-0.112 2.289,-0.331c3.308,-0.978 5.659,-3.968 5.848,-7.441" fill-rule="nonzero" fill="#000000" id="svg_32"/>
    </g>
    <g transform="matrix(1,0,0,1,-617.603,-230.348) " id="svg_33">
     <path d="m58.3845,50.14464c-0.552,0 -1.108,0.049 -1.656,0.146c-5.19,0.897 -8.675,5.878 -7.774,11.102c0.448,2.524 1.852,4.725 3.956,6.19c2.082,1.455 4.652,2.021 7.159,1.571c0.374,-0.065 0.725,-0.15 1.076,-0.251c4.655,-1.375 7.539,-6.041 6.707,-10.852c-0.835,-4.577 -4.817,-7.906 -9.468,-7.906" fill-rule="nonzero" fill="#000000" id="svg_34"/>
    </g>
    <g transform="matrix(1,0,0,1,-617.603,-230.348) " id="svg_35">
     <path d="m20.6225,75.79364c1.763,4.151 5.801,6.835 10.286,6.835c1.061,0 2.117,-0.152 3.142,-0.455c0.424,-0.124 0.852,-0.28 1.273,-0.458c2.777,-1.188 4.919,-3.372 6.029,-6.152c1.112,-2.765 1.076,-5.794 -0.099,-8.534c-1.762,-4.145 -5.81,-6.821 -10.317,-6.821c-1.504,0 -2.977,0.302 -4.38,0.897c-5.678,2.418 -8.341,9.007 -5.934,14.688" fill-rule="nonzero" fill="#000000" id="svg_36"/>
    </g>
    <g transform="matrix(1,0,0,1,-617.603,-230.348) " id="svg_37">
     <path d="m136.6735,83.74064c-0.842,-0.467 -1.816,-0.713 -2.822,-0.713c-2.254,0 -4.36,1.196 -5.367,3.046c-1.61,2.911 -0.557,6.578 2.343,8.183c1.418,0.801 3.081,0.988 4.627,0.53c1.524,-0.45 2.803,-1.476 3.603,-2.887c1.581,-2.893 0.514,-6.56 -2.384,-8.159" fill-rule="nonzero" fill="#000000" id="svg_38"/>
    </g>
    <g transform="matrix(1,0,0,1,-617.603,-230.348) " id="svg_39">
     <path d="m109.9725,87.40564c0.908,1.633 2.401,2.817 4.202,3.337c0.625,0.173 1.277,0.262 1.929,0.262c0.68,0 1.353,-0.097 2,-0.287c2.33,-0.687 4.117,-2.489 4.779,-4.821c1.043,-3.732 -1.121,-7.628 -4.822,-8.676c-0.59,-0.17 -1.2,-0.255 -1.819,-0.255c-3.128,0 -6.021,2.129 -6.877,5.065c-0.523,1.808 -0.306,3.718 0.608,5.375" fill-rule="nonzero" fill="#000000" id="svg_40"/>
    </g>
    <g transform="matrix(1,0,0,1,-617.603,-230.348) " id="svg_41">
     <path d="m102.7885,83.27464c0.222,-4.513 -3.272,-8.377 -7.791,-8.607l-0.387,-0.01c-4.238,0 -7.999,3.557 -8.211,7.769c-0.241,4.513 3.242,8.382 7.762,8.626l0.402,0.009c0.8,0 1.587,-0.112 2.34,-0.335c3.321,-0.981 5.686,-3.975 5.885,-7.452" fill-rule="nonzero" fill="#000000" id="svg_42"/>
    </g>
    <g transform="matrix(1,0,0,1,-617.603,-230.348) " id="svg_43">
     <path d="m69.6045,96.87764c0.552,0 1.11,-0.05 1.658,-0.146c0.36,-0.062 0.705,-0.145 1.045,-0.247c4.69,-1.381 7.578,-6.051 6.723,-10.863c-0.821,-4.591 -4.793,-7.925 -9.446,-7.925c-0.555,0 -1.117,0.049 -1.668,0.147c-5.191,0.924 -8.668,5.92 -7.751,11.138c0.819,4.573 4.789,7.896 9.439,7.896" fill-rule="nonzero" fill="#000000" id="svg_44"/>
    </g>
    <g transform="matrix(1,0,0,1,-617.603,-230.348) " id="svg_45">
     <path d="m52.5345,103.17164c1.125,-2.79 1.098,-5.835 -0.077,-8.575c-1.746,-4.07 -5.927,-6.804 -10.404,-6.804c-1.493,0 -2.939,0.298 -4.298,0.885c-2.766,1.161 -4.902,3.321 -6.024,6.085c-1.132,2.782 -1.102,5.84 0.083,8.611c1.77,4.145 5.816,6.822 10.31,6.822l0.001,0c1.068,0 2.134,-0.154 3.167,-0.459c0.416,-0.123 0.822,-0.268 1.228,-0.442c2.758,-1.167 4.894,-3.342 6.014,-6.123" fill-rule="nonzero" fill="#000000" id="svg_46"/>
    </g>
    <g transform="matrix(1,0,0,1,-617.603,-230.348) " id="svg_47">
     <path d="m24.3465,111.93264c-2.47,-3.386 -6.445,-5.407 -10.635,-5.407c-1.254,0 -2.498,0.181 -3.7,0.537c-1.434,0.422 -2.785,1.09 -4.017,1.986c-2.825,2.057 -4.68,5.098 -5.223,8.565c-0.544,3.466 0.29,6.931 2.348,9.759c2.462,3.389 6.442,5.414 10.644,5.414c1.252,0 2.495,-0.179 3.696,-0.533c1.431,-0.42 2.779,-1.086 4.006,-1.976c5.845,-4.278 7.139,-12.508 2.881,-18.345" fill-rule="nonzero" fill="#000000" id="svg_48"/>
    </g>
    <g transform="matrix(1,0,0,1,-617.603,-230.348) " id="svg_49">
     <path d="m165.5335,157.90464c-0.195,-2.283 -2.154,-4.074 -4.453,-4.074c-0.129,0 -0.258,0.006 -0.387,0.015c-1.898,0.161 -3.478,1.532 -3.931,3.413c-0.112,0.466 -0.147,0.935 -0.108,1.433c0.209,2.266 2.149,4.047 4.42,4.047c0.127,0 0.254,-0.006 0.383,-0.016c1.15,-0.093 2.248,-0.672 3.019,-1.586c0.782,-0.921 1.157,-2.07 1.057,-3.232" fill-rule="nonzero" fill="#000000" id="svg_50"/>
    </g>
    <g transform="matrix(1,0,0,1,-617.603,-230.348) " id="svg_51">
     <path d="m168.6645,152.95064c-0.225,0.944 -0.186,1.924 0.117,2.84c0.862,2.652 3.844,4.187 6.533,3.314c1.243,-0.406 2.317,-1.359 2.948,-2.607c0.631,-1.252 0.756,-2.681 0.343,-3.925c-0.418,-1.325 -1.33,-2.392 -2.57,-3.017c-0.726,-0.373 -1.527,-0.568 -2.32,-0.568c-0.543,0 -1.08,0.091 -1.598,0.266c-1.748,0.552 -3.031,1.932 -3.453,3.697" fill-rule="nonzero" fill="#000000" id="svg_52"/>
    </g>
    <g transform="matrix(1,0,0,1,-617.603,-230.348) " id="svg_53">
     <path d="m181.1875,144.73064c-0.379,1.553 -0.131,3.15 0.697,4.508c0.83,1.388 2.141,2.361 3.701,2.75c0.487,0.123 0.987,0.185 1.479,0.185l0.002,0c1.08,0 2.142,-0.3 3.076,-0.867c2.746,-1.664 3.713,-5.535 2.066,-8.283c-1.089,-1.785 -3.078,-2.898 -5.187,-2.898c-1.084,0 -2.148,0.293 -3.078,0.847c-1.397,0.844 -2.377,2.178 -2.756,3.758" fill-rule="nonzero" fill="#000000" id="svg_54"/>
    </g>
    <g transform="matrix(1,0,0,1,-617.603,-230.348) " id="svg_55">
     <path d="m200.2345,140.41964c1.822,0 3.553,-0.701 4.873,-1.973c2.67,-2.593 2.742,-7.25 0.152,-9.961c-1.322,-1.349 -3.115,-2.097 -5.039,-2.097c-1.849,0 -3.601,0.701 -4.935,1.972c-0.926,0.909 -1.586,2.075 -1.899,3.362c-0.57,2.369 0.094,4.822 1.776,6.56c1.304,1.344 3.058,2.102 4.937,2.135l0.133,1.022l0.002,0l0,-1.02z" fill-rule="nonzero" fill="#000000" id="svg_56"/>
    </g>
    <g transform="matrix(1,0,0,1,-617.603,-230.348) " id="svg_57">
     <path d="m218.8285,119.76564c2.416,-3.727 1.301,-8.933 -2.43,-11.371c-1.324,-0.852 -2.859,-1.303 -4.433,-1.303c-2.807,0 -5.383,1.399 -6.893,3.743c-0.506,0.782 -0.875,1.636 -1.096,2.544c-0.814,3.377 0.596,6.912 3.508,8.793c1.336,0.869 2.877,1.328 4.455,1.328c0.586,0 1.18,-0.062 1.764,-0.187c2.133,-0.463 3.955,-1.725 5.125,-3.547" fill-rule="nonzero" fill="#000000" id="svg_58"/>
    </g>
    <g transform="matrix(1,0,0,1,-617.603,-230.348) " id="svg_59">
     <path d="m223.8825,82.43364c-1.053,-0.382 -2.148,-0.575 -3.258,-0.575c-4.023,0 -7.656,2.543 -9.035,6.327c-0.125,0.336 -0.225,0.678 -0.311,1.019c-1.142,4.742 1.456,9.584 6.045,11.257c1.039,0.372 2.127,0.562 3.229,0.562c4.037,0 7.67,-2.537 9.041,-6.312c1.758,-4.99 -0.803,-10.502 -5.711,-12.278" fill-rule="nonzero" fill="#000000" id="svg_60"/>
    </g>
    <g transform="matrix(1,0,0,1,-617.603,-230.348) " id="svg_61">
     <path d="m145.0355,143.96864c-0.225,0.922 -0.187,1.889 0.109,2.795c0.426,1.316 1.344,2.381 2.58,3.006c0.733,0.371 1.512,0.56 2.321,0.56c0.547,0 1.094,-0.09 1.625,-0.265c1.258,-0.403 2.338,-1.35 2.97,-2.6c0.631,-1.24 0.756,-2.658 0.348,-3.885c-0.424,-1.318 -1.334,-2.388 -2.572,-3.025c-0.738,-0.381 -1.527,-0.576 -2.348,-0.576c-0.535,0 -1.07,0.086 -1.594,0.254c-1.724,0.574 -3.017,1.974 -3.439,3.736" fill-rule="nonzero" fill="#000000" id="svg_62"/>
    </g>
    <g transform="matrix(1,0,0,1,-617.603,-230.348) " id="svg_63">
     <path d="m161.9595,142.97264c1.535,0.373 3.215,0.127 4.578,-0.697c2.764,-1.68 3.701,-5.481 2.043,-8.301c-1.109,-1.791 -3.053,-2.873 -5.187,-2.873c-1.094,0 -2.164,0.301 -3.096,0.867c-1.387,0.842 -2.358,2.166 -2.736,3.736c-0.375,1.561 -0.125,3.163 0.709,4.504c0.822,1.391 2.128,2.366 3.689,2.764" fill-rule="nonzero" fill="#000000" id="svg_64"/>
    </g>
    <g transform="matrix(1,0,0,1,-617.603,-230.348) " id="svg_65">
     <path d="m176.5825,131.39864c1.846,0 3.586,-0.703 4.896,-1.98c1.282,-1.235 2.034,-3.028 2.067,-4.922c0.033,-1.901 -0.66,-3.729 -1.902,-5.012c-1.331,-1.375 -3.124,-2.133 -5.047,-2.133c-1.836,0 -3.571,0.699 -4.889,1.969c-0.955,0.935 -1.627,2.115 -1.939,3.402c-0.563,2.346 0.103,4.795 1.785,6.553c1.304,1.332 3.062,2.09 4.945,2.123l0.082,1.027l0.002,0l0,-1.027z" fill-rule="nonzero" fill="#000000" id="svg_66"/>
    </g>
    <g transform="matrix(1,0,0,1,-617.603,-230.348) " id="svg_67">
     <path d="m195.1955,110.74164c1.162,-1.783 1.549,-3.961 1.088,-6.139c-0.455,-2.161 -1.729,-4.06 -3.494,-5.209c-1.326,-0.858 -2.862,-1.313 -4.44,-1.313c-2.8,0 -5.381,1.398 -6.898,3.738c-0.512,0.779 -0.881,1.635 -1.104,2.547c-0.808,3.355 0.608,6.886 3.52,8.787c1.336,0.867 2.873,1.326 4.443,1.326c0.58,0 1.168,-0.062 1.744,-0.186c2.141,-0.464 3.965,-1.726 5.141,-3.551" fill-rule="nonzero" fill="#000000" id="svg_68"/>
    </g>
    <g transform="matrix(1,0,0,1,-617.603,-230.348) " id="svg_69">
     <path d="m193.7125,91.43864c1.033,0.37 2.121,0.56 3.223,0.56c4.041,0 7.679,-2.538 9.058,-6.313c1.817,-4.943 -0.756,-10.453 -5.73,-12.284c-1.059,-0.386 -2.164,-0.58 -3.28,-0.58c-1.404,0 -2.769,0.305 -4.056,0.909c-2.319,1.085 -4.072,3.009 -4.942,5.416c-0.13,0.357 -0.234,0.707 -0.322,1.062c-1.135,4.713 1.465,9.544 6.049,11.23" fill-rule="nonzero" fill="#000000" id="svg_70"/>
    </g>
    <g transform="matrix(1,0,0,1,-617.603,-230.348) " id="svg_71">
     <path d="m199.2345,63.91364c0.459,0.057 0.914,0.084 1.365,0.084c5.645,0 10.422,-4.235 11.114,-9.853c0.744,-6.125 -3.631,-11.725 -9.756,-12.482c-0.461,-0.057 -0.924,-0.084 -1.381,-0.084c-5.182,0 -9.645,3.505 -10.856,8.524c-0.105,0.43 -0.183,0.879 -0.24,1.333c-0.361,2.995 0.461,5.945 2.315,8.298c1.835,2.341 4.478,3.826 7.439,4.18" fill-rule="nonzero" fill="#000000" id="svg_72"/>
    </g>
    <g transform="matrix(1,0,0,1,-617.603,-230.348) " id="svg_73">
     <path d="m139.7535,134.42964c0.385,-1.574 0.156,-3.211 -0.629,-4.494c-1.086,-1.803 -3.064,-2.92 -5.172,-2.92c-1.086,0 -2.154,0.297 -3.088,0.861c-1.41,0.834 -2.39,2.16 -2.769,3.739c-0.373,1.544 -0.125,3.166 0.697,4.562c1.096,1.799 3.027,2.881 5.16,2.881c1.092,0 2.164,-0.299 3.1,-0.863c1.324,-0.795 2.308,-2.168 2.701,-3.766" fill-rule="nonzero" fill="#000000" id="svg_74"/>
    </g>
    <g transform="matrix(1,0,0,1,-617.603,-230.348) " id="svg_75">
     <path d="m147.1405,127.29664l0.002,0c1.834,0 3.561,-0.697 4.861,-1.963c2.694,-2.588 2.778,-7.226 0.184,-9.933c-1.307,-1.356 -3.067,-2.127 -4.961,-2.165l-0.002,0c-1.928,0 -3.664,0.7 -4.99,1.973c-0.951,0.938 -1.627,2.125 -1.942,3.416c-0.568,2.36 0.1,4.811 1.787,6.553c1.338,1.365 3.137,2.119 5.061,2.119" fill-rule="nonzero" fill="#000000" id="svg_76"/>
    </g>
    <g transform="matrix(1,0,0,1,-617.603,-230.348) " id="svg_77">
     <path d="m154.4005,109.08164c1.322,0.854 2.859,1.308 4.437,1.308c2.807,0 5.391,-1.404 6.911,-3.751c2.371,-3.666 1.24,-8.959 -2.42,-11.327c-1.33,-0.866 -2.869,-1.323 -4.451,-1.323c-2.797,0 -5.377,1.396 -6.901,3.734c-0.508,0.787 -0.875,1.643 -1.09,2.538c-0.81,3.365 0.6,6.91 3.514,8.821" fill-rule="nonzero" fill="#000000" id="svg_78"/>
    </g>
    <g transform="matrix(1,0,0,1,-617.603,-230.348) " id="svg_79">
     <path d="m170.7675,69.31564c-1.043,-0.377 -2.133,-0.568 -3.238,-0.568c-4.02,0 -7.647,2.534 -9.024,6.304c-0.125,0.34 -0.226,0.678 -0.306,1.023c-1.149,4.756 1.451,9.594 6.045,11.261c1.05,0.379 2.148,0.572 3.257,0.572c4.032,0 7.662,-2.536 9.036,-6.312c1.794,-4.956 -0.793,-10.466 -5.77,-12.28" fill-rule="nonzero" fill="#000000" id="svg_80"/>
    </g>
    <g transform="matrix(1,0,0,1,-617.603,-230.348) " id="svg_81">
     <path d="m172.4785,37.56764c-0.457,-0.056 -0.912,-0.082 -1.359,-0.082c-5.196,0 -9.672,3.525 -10.891,8.573c-0.102,0.422 -0.18,0.843 -0.23,1.278c-0.368,2.98 0.449,5.916 2.296,8.273c1.852,2.37 4.504,3.87 7.467,4.224c0.434,0.052 0.869,0.078 1.301,0.078c5.623,0 10.529,-4.326 11.172,-9.85c0.377,-2.978 -0.426,-5.908 -2.258,-8.261c-1.84,-2.37 -4.504,-3.873 -7.498,-4.233" fill-rule="nonzero" fill="#000000" id="svg_82"/>
    </g>
    <g transform="matrix(1,0,0,1,-617.603,-230.348) " id="svg_83">
     <path d="m167.3985,26.89464c0.463,0 0.932,-0.024 1.402,-0.075c5.516,-0.592 10.092,-4.601 11.385,-9.977c0.352,-1.454 0.447,-2.96 0.289,-4.472c-0.711,-6.685 -6.316,-11.728 -13.039,-11.728c-0.461,0 -0.924,0.024 -1.392,0.074c-5.518,0.578 -10.098,4.589 -11.401,9.979c-0.349,1.463 -0.445,2.964 -0.287,4.458c0.723,6.692 6.33,11.741 13.043,11.741" fill-rule="nonzero" fill="#000000" id="svg_84"/>
    </g>
    <g transform="matrix(1,0,0,1,-617.603,-230.348) " id="svg_85">
     <path d="m63.3395,118.83164c-0.348,-0.33 -0.736,-0.594 -1.186,-0.809c-0.578,-0.265 -1.205,-0.404 -1.853,-0.404c-1.732,0 -3.32,1 -4.043,2.547c-0.492,1.043 -0.541,2.285 -0.136,3.41c0.409,1.135 1.217,2.035 2.274,2.531c0.59,0.276 1.22,0.416 1.871,0.416l0.001,0c1.733,0 3.327,-1.011 4.06,-2.578c0.812,-1.724 0.414,-3.779 -0.988,-5.113" fill-rule="nonzero" fill="#000000" id="svg_86"/>
    </g>
    <g transform="matrix(1,0,0,1,-617.603,-230.348) " id="svg_87">
     <path d="m58.6075,129.98064c-0.368,-0.078 -0.731,-0.117 -1.093,-0.117c-2.419,0 -4.543,1.728 -5.051,4.113c-0.268,1.279 0.019,2.69 0.788,3.861c0.768,1.17 1.942,1.993 3.224,2.254c1.383,0.309 2.74,0.039 3.903,-0.715c1.163,-0.759 1.95,-1.912 2.215,-3.246c0.395,-1.787 -0.159,-3.589 -1.477,-4.843c-0.707,-0.664 -1.577,-1.12 -2.509,-1.307" fill-rule="nonzero" fill="#000000" id="svg_88"/>
    </g>
    <g transform="matrix(1,0,0,1,-617.603,-230.348) " id="svg_89">
     <path d="m57.9465,156.64664c3.304,-0.076 5.957,-2.828 5.906,-6.133c-0.032,-1.631 -0.698,-3.148 -1.875,-4.265c-1.116,-1.063 -2.57,-1.649 -4.093,-1.649c-1.776,0.024 -3.277,0.672 -4.396,1.826c-1.121,1.162 -1.721,2.688 -1.688,4.289c0.071,3.161 2.902,5.932 6.062,5.932l-0.001,1.025l0.001,0l0.084,-1.025z" fill-rule="nonzero" fill="#000000" id="svg_90"/>
    </g>
    <g transform="matrix(1,0,0,1,-617.603,-230.348) " id="svg_91">
     <path d="m62.4345,175.40664c0.532,0 1.062,-0.064 1.572,-0.189c3.725,-0.956 6.018,-4.803 5.099,-8.573c-0.326,-1.256 -1.007,-2.412 -1.964,-3.328c-1.327,-1.256 -3.054,-1.951 -4.857,-1.951c-0.576,0 -1.153,0.07 -1.715,0.211c-1.812,0.455 -3.347,1.596 -4.32,3.211c-0.962,1.603 -1.245,3.494 -0.793,5.314c0.764,3.022 3.763,5.303 6.978,5.305" fill-rule="nonzero" fill="#000000" id="svg_92"/>
    </g>
    <g transform="matrix(1,0,0,1,-617.603,-230.348) " id="svg_93">
     <path d="m75.8385,194.91064c4.018,-2.068 5.613,-7.014 3.551,-11.023c-0.425,-0.832 -0.98,-1.581 -1.655,-2.221c-1.529,-1.459 -3.542,-2.26 -5.663,-2.26c-1.286,0 -2.568,0.309 -3.709,0.893c-1.962,1.004 -3.419,2.716 -4.095,4.82c-0.668,2.08 -0.488,4.287 0.509,6.213c1.377,2.695 4.295,4.433 7.437,4.433c1.286,0 2.506,-0.287 3.625,-0.855" fill-rule="nonzero" fill="#000000" id="svg_94"/>
    </g>
    <g transform="matrix(1,0,0,1,-617.603,-230.348) " id="svg_95">
     <path d="m95.7445,200.85164c-0.229,-0.277 -0.476,-0.535 -0.731,-0.783c-1.786,-1.696 -4.133,-2.635 -6.602,-2.635c-2.248,0 -4.438,0.799 -6.166,2.246c-4.022,3.412 -4.542,9.469 -1.154,13.504c1.855,2.162 4.55,3.408 7.389,3.408c2.235,0 4.4,-0.787 6.1,-2.22c4.04,-3.401 4.562,-9.467 1.164,-13.52" fill-rule="nonzero" fill="#000000" id="svg_96"/>
    </g>
    <g transform="matrix(1,0,0,1,-617.603,-230.348) " id="svg_97">
     <path d="m78.2365,114.01564c-0.354,-0.076 -0.717,-0.111 -1.075,-0.111c-0.995,0 -1.971,0.291 -2.823,0.843c-1.156,0.756 -1.945,1.916 -2.22,3.27c-0.281,1.293 -0.003,2.701 0.762,3.875c0.759,1.166 1.922,1.984 3.191,2.242c1.381,0.301 2.742,0.033 3.906,-0.715c1.158,-0.742 1.957,-1.896 2.253,-3.25c0.365,-1.781 -0.201,-3.597 -1.516,-4.849c-0.689,-0.655 -1.545,-1.106 -2.478,-1.305" fill-rule="nonzero" fill="#000000" id="svg_98"/>
    </g>
    <g transform="matrix(1,0,0,1,-617.603,-230.348) " id="svg_99">
     <path d="m77.5915,140.70664c3.312,-0.1 5.96,-2.869 5.88,-6.172c-0.034,-1.619 -0.697,-3.121 -1.865,-4.234c-1.114,-1.057 -2.555,-1.641 -4.063,-1.641l-0.215,0.004c-1.594,0.018 -3.091,0.66 -4.215,1.811c-1.116,1.168 -1.717,2.703 -1.686,4.318c0.069,3.205 2.869,5.914 6.113,5.914l-0.001,1.027l0.052,-1.027z" fill-rule="nonzero" fill="#000000" id="svg_100"/>
    </g>
    <g transform="matrix(1,0,0,1,-617.603,-230.348) " id="svg_101">
     <path d="m75.8665,148.85364c-0.955,1.611 -1.233,3.496 -0.777,5.301c0.754,3.027 3.738,5.306 6.943,5.306c0.536,0 1.067,-0.064 1.58,-0.193c3.751,-0.941 6.043,-4.766 5.108,-8.521c-0.331,-1.295 -1.013,-2.465 -1.976,-3.381c-1.316,-1.25 -3.04,-1.94 -4.852,-1.94c-0.574,0 -1.149,0.071 -1.712,0.209c-1.804,0.461 -3.34,1.604 -4.314,3.219" fill-rule="nonzero" fill="#000000" id="svg_102"/>
    </g>
    <g transform="matrix(1,0,0,1,-617.603,-230.348) " id="svg_103">
     <path d="m83.9045,169.15064c-0.669,2.084 -0.49,4.295 0.504,6.223c1.367,2.701 4.284,4.441 7.434,4.441l0.001,0c1.261,0 2.505,-0.293 3.595,-0.848c4.022,-2.054 5.622,-7.005 3.569,-11.033c-0.421,-0.832 -0.978,-1.582 -1.658,-2.232c-1.515,-1.44 -3.517,-2.235 -5.634,-2.235c-1.29,0 -2.581,0.309 -3.73,0.891c-1.96,0.996 -3.409,2.699 -4.081,4.793" fill-rule="nonzero" fill="#000000" id="svg_104"/>
    </g>
    <g transform="matrix(1,0,0,1,-617.603,-230.348) " id="svg_105">
     <path d="m115.3725,184.92964c-0.244,-0.295 -0.498,-0.559 -0.762,-0.816c-1.771,-1.682 -4.107,-2.616 -6.568,-2.616c-2.248,0 -4.441,0.797 -6.176,2.243c-4.015,3.412 -4.538,9.478 -1.158,13.513c1.818,2.18 4.483,3.428 7.312,3.428c2.251,0 4.449,-0.797 6.188,-2.244c1.964,-1.653 3.168,-3.971 3.386,-6.524c0.22,-2.547 -0.57,-5.025 -2.222,-6.984" fill-rule="nonzero" fill="#000000" id="svg_106"/>
    </g>
    <g transform="matrix(1,0,0,1,-617.603,-230.348) " id="svg_107">
     <path d="m139.6605,200.95164c-0.318,-0.301 -0.668,-0.596 -1.035,-0.873c-1.973,-1.479 -4.303,-2.262 -6.733,-2.262c-0.535,0 -1.072,0.039 -1.611,0.117c-2.945,0.42 -5.551,1.967 -7.34,4.354c-1.789,2.377 -2.549,5.314 -2.14,8.269c0.41,2.975 1.959,5.608 4.361,7.416c1.953,1.471 4.279,2.249 6.725,2.249c3.56,0 6.828,-1.624 8.962,-4.45c3.424,-4.545 2.913,-10.916 -1.189,-14.82" fill-rule="nonzero" fill="#000000" id="svg_108"/>
    </g>
    <g transform="matrix(1,0,0,1,-617.603,-230.348) " id="svg_109">
     <path d="m95.8195,117.22064c3.325,-0.062 5.977,-2.807 5.914,-6.123c-0.016,-1.636 -0.675,-3.15 -1.852,-4.269c-1.14,-1.083 -2.647,-1.678 -4.247,-1.678c-3.352,0.077 -5.995,2.834 -5.931,6.143c0.056,3.159 2.851,5.929 5.981,5.929l0,1.019l0.002,0l0.133,-1.021z" fill-rule="nonzero" fill="#000000" id="svg_110"/>
    </g>
    <g transform="matrix(1,0,0,1,-617.603,-230.348) " id="svg_111">
     <path d="m93.3645,130.67364c0.748,3.031 3.734,5.312 6.948,5.312c0.531,0 1.057,-0.062 1.564,-0.185c1.829,-0.453 3.376,-1.594 4.351,-3.211c0.959,-1.604 1.241,-3.49 0.79,-5.312c-0.336,-1.295 -1.024,-2.471 -1.988,-3.389c-1.315,-1.256 -3.035,-1.945 -4.838,-1.945c-0.579,0 -1.159,0.072 -1.725,0.214c-3.754,0.967 -6.046,4.789 -5.102,8.516" fill-rule="nonzero" fill="#000000" id="svg_112"/>
    </g>
    <g transform="matrix(1,0,0,1,-617.603,-230.348) " id="svg_113">
     <path d="m102.6855,151.92564c1.372,2.682 4.286,4.414 7.424,4.414l0.001,0c1.263,0 2.506,-0.293 3.595,-0.85c4.027,-2.046 5.634,-6.994 3.586,-11.033c-0.428,-0.832 -0.986,-1.578 -1.654,-2.215c-1.528,-1.453 -3.541,-2.254 -5.668,-2.254c-1.288,0 -2.576,0.309 -3.725,0.889c-4.023,2.061 -5.622,7.02 -3.559,11.049" fill-rule="nonzero" fill="#000000" id="svg_114"/>
    </g>
    <g transform="matrix(1,0,0,1,-617.603,-230.348) " id="svg_115">
     <path d="m118.9765,173.78864c1.824,2.166 4.488,3.412 7.311,3.412c2.261,0 4.466,-0.805 6.21,-2.266c4.026,-3.396 4.549,-9.447 1.165,-13.49c-0.231,-0.271 -0.475,-0.531 -0.733,-0.773c-1.797,-1.713 -4.142,-2.653 -6.607,-2.653c-2.25,0 -4.442,0.801 -6.17,2.254c-4.041,3.412 -4.57,9.475 -1.176,13.516" fill-rule="nonzero" fill="#000000" id="svg_116"/>
    </g>
    <g transform="matrix(1,0,0,1,-617.603,-230.348) " id="svg_117">
     <path d="m159.1365,192.29064c3.416,-4.557 2.887,-10.943 -1.229,-14.855c-0.314,-0.299 -0.638,-0.579 -0.992,-0.84c-1.963,-1.481 -4.285,-2.264 -6.718,-2.264c-0.53,0 -1.063,0.039 -1.596,0.113c-2.977,0.418 -5.6,1.967 -7.389,4.358c-1.783,2.386 -2.523,5.359 -2.086,8.371c0.434,2.974 1.965,5.574 4.313,7.318c1.968,1.494 4.293,2.281 6.728,2.281c0.516,0 1.033,-0.035 1.553,-0.107c2.973,-0.408 5.605,-1.963 7.416,-4.375" fill-rule="nonzero" fill="#000000" id="svg_118"/>
    </g>
    <g transform="matrix(1,0,0,1,-617.603,-230.348) " id="svg_119">
     <path d="m191.3265,190.28164c-1.086,-1.032 -2.336,-1.867 -3.719,-2.486c-1.681,-0.744 -3.465,-1.119 -5.295,-1.119c-5.207,0 -9.927,3.061 -12.029,7.798c-2.246,5.077 -1.061,11.045 2.947,14.851c1.078,1.024 2.334,1.859 3.733,2.488c1.679,0.745 3.461,1.125 5.291,1.125c5.195,0 9.91,-3.061 12.015,-7.8c2.258,-5.066 1.077,-11.038 -2.943,-14.857" fill-rule="nonzero" fill="#000000" id="svg_120"/>
    </g>
   </g>
  </g>
 </g>
</svg>